<svg width="21" height="21" viewBox="0 0 21 21" fill="none" xmlns="http://www.w3.org/2000/svg">
<path d="M0 3.4C0 1.52223 1.51974 0 3.39444 0H16.5806C18.4553 0 19.975 1.52223 19.975 3.4V17C19.975 18.8778 18.4553 20.4 16.5806 20.4H3.39445C1.51975 20.4 0 18.8778 0 17V3.4Z" fill="#FFFAEE"/>
<path d="M14.0614 17.5324H17.0692V11.4561C17.0692 8.45509 15.2555 7.43154 13.5772 7.43154C12.0252 7.43154 10.971 8.46409 10.6799 9.06894V7.70768H7.78718V17.5324H10.7951V12.2058C10.7951 10.7855 11.67 10.0948 12.5625 10.0948C13.4067 10.0948 14.0614 10.5831 14.0614 12.1663V17.5324Z" fill="#1C1A17"/>
<path d="M2.74219 4.56357C2.74219 5.58927 3.51857 6.33884 4.47628 6.33884C5.43412 6.33884 6.2105 5.58927 6.2105 4.56357C6.2105 3.53802 5.43412 2.7876 4.47628 2.7876C3.51857 2.7876 2.74219 3.53802 2.74219 4.56357Z" fill="#1C1A17"/>
<path d="M2.97241 17.5248H5.98014V7.7001H2.97241V17.5248Z" fill="#1C1A17"/>
</svg>
