<svg width="21" height="21" viewBox="0 0 21 21" fill="none" xmlns="http://www.w3.org/2000/svg">
<path fill-rule="evenodd" clip-rule="evenodd" d="M10.2 20.4C15.8333 20.4 20.4 15.8333 20.4 10.2C20.4 4.5667 15.8333 0 10.2 0C4.5667 0 0 4.5667 0 10.2C0 15.8333 4.5667 20.4 10.2 20.4Z" fill="#12100E"/>
<path d="M5.01309 6.92898C5.02999 6.75812 4.96632 6.58924 4.84166 6.47425L3.57182 4.90867V4.6748H7.51468L10.5623 11.5153L13.2417 4.6748H17.0004V4.90867L15.9147 5.97404C15.8211 6.04706 15.7746 6.16707 15.794 6.28586V14.1138C15.7746 14.2325 15.8211 14.3525 15.9147 14.4256L16.975 15.4909V15.7248H11.6417V15.4909L12.7401 14.3996C12.848 14.2891 12.848 14.2567 12.848 14.0878V7.76049L9.79404 15.6988H9.38134L5.82579 7.76049V13.0809C5.79614 13.3045 5.86873 13.5297 6.02261 13.6915L7.45118 15.465V15.6988H3.40039V15.465L4.82896 13.6915C4.98172 13.5295 5.05008 13.3028 5.01309 13.0809V6.92898Z" fill="white"/>
</svg>
